<mxfile host="app.diagrams.net" modified="2023-05-29T09:51:03.790Z" agent="Mozilla/5.0 (Windows NT 10.0; Win64; x64) AppleWebKit/537.36 (KHTML, like Gecko) Chrome/113.0.0.0 Safari/537.36" etag="lXhN6LEOaY-WR1eWYrpa" version="21.3.5" type="github">
  <diagram name="第 1 页" id="Jg3PUS44KZX6RwzNY00S">
    <mxGraphModel dx="794" dy="516" grid="1" gridSize="10" guides="1" tooltips="1" connect="1" arrows="1" fold="1" page="1" pageScale="1" pageWidth="1654" pageHeight="2336" math="0" shadow="0">
      <root>
        <mxCell id="0" />
        <mxCell id="1" parent="0" />
        <mxCell id="n6iqKTnPqaBq629mQPx4-1" value="" style="shape=mxgraph.rack.hp.hp_bladesystem_c3000_enclosure;html=1;labelPosition=right;align=left;spacingLeft=15;dashed=0;shadow=0;fillColor=#ffffff;" vertex="1" parent="1">
          <mxGeometry x="330" y="250" width="161" height="89" as="geometry" />
        </mxCell>
        <mxCell id="n6iqKTnPqaBq629mQPx4-2" value="" style="fontColor=#0066CC;verticalAlign=top;verticalLabelPosition=bottom;labelPosition=center;align=center;html=1;outlineConnect=0;fillColor=#CCCCCC;strokeColor=#6881B3;gradientColor=none;gradientDirection=north;strokeWidth=2;shape=mxgraph.networks.security_camera;" vertex="1" parent="1">
          <mxGeometry x="150" y="110" width="100" height="75" as="geometry" />
        </mxCell>
        <mxCell id="n6iqKTnPqaBq629mQPx4-3" value="" style="fontColor=#0066CC;verticalAlign=top;verticalLabelPosition=bottom;labelPosition=center;align=center;html=1;outlineConnect=0;fillColor=#CCCCCC;strokeColor=#6881B3;gradientColor=none;gradientDirection=north;strokeWidth=2;shape=mxgraph.networks.satellite;" vertex="1" parent="1">
          <mxGeometry x="330" y="140" width="100" height="100" as="geometry" />
        </mxCell>
        <mxCell id="n6iqKTnPqaBq629mQPx4-4" value="" style="fontColor=#0066CC;verticalAlign=top;verticalLabelPosition=bottom;labelPosition=center;align=center;html=1;outlineConnect=0;fillColor=#CCCCCC;strokeColor=#6881B3;gradientColor=none;gradientDirection=north;strokeWidth=2;shape=mxgraph.networks.firewall;" vertex="1" parent="1">
          <mxGeometry x="380" y="60" width="100" height="100" as="geometry" />
        </mxCell>
        <mxCell id="n6iqKTnPqaBq629mQPx4-5" value="" style="fontColor=#0066CC;verticalAlign=top;verticalLabelPosition=bottom;labelPosition=center;align=center;html=1;outlineConnect=0;fillColor=#CCCCCC;strokeColor=#6881B3;gradientColor=none;gradientDirection=north;strokeWidth=2;shape=mxgraph.networks.storage;" vertex="1" parent="1">
          <mxGeometry x="310" y="390" width="100" height="100" as="geometry" />
        </mxCell>
        <mxCell id="n6iqKTnPqaBq629mQPx4-6" value="" style="fontColor=#0066CC;verticalAlign=top;verticalLabelPosition=bottom;labelPosition=center;align=center;html=1;outlineConnect=0;fillColor=#CCCCCC;strokeColor=#6881B3;gradientColor=none;gradientDirection=north;strokeWidth=2;shape=mxgraph.networks.virus;" vertex="1" parent="1">
          <mxGeometry x="230" y="300" width="100" height="90" as="geometry" />
        </mxCell>
        <mxCell id="n6iqKTnPqaBq629mQPx4-7" value="" style="fontColor=#0066CC;verticalAlign=top;verticalLabelPosition=bottom;labelPosition=center;align=center;html=1;outlineConnect=0;fillColor=#CCCCCC;strokeColor=#6881B3;gradientColor=none;gradientDirection=north;strokeWidth=2;shape=mxgraph.networks.unsecure;" vertex="1" parent="1">
          <mxGeometry x="120" y="300" width="80" height="100" as="geometry" />
        </mxCell>
      </root>
    </mxGraphModel>
  </diagram>
</mxfile>
